<svg width="1200" height="675" viewBox="0 0 1200 675" fill="none" xmlns="http://www.w3.org/2000/svg">
  <defs>
    <linearGradient id="bg" x1="0" y1="0" x2="1" y2="1">
      <stop offset="0%" stop-color="#1f2340"/>
      <stop offset="100%" stop-color="#0f172a"/>
    </linearGradient>
    <linearGradient id="accent" x1="0" y1="0" x2="1" y2="0">
      <stop offset="0%" stop-color="#6366f1"/>
      <stop offset="100%" stop-color="#22d3ee"/>
    </linearGradient>
  </defs>
  <rect width="1200" height="675" rx="36" fill="url(#bg)"/>
  <rect x="120" y="120" width="960" height="435" rx="28" fill="#111827" opacity="0.55" stroke="url(#accent)" stroke-width="3"/>
  <g opacity="0.85">
    <circle cx="240" cy="220" r="36" fill="#22d3ee"/>
    <rect x="300" y="194" width="360" height="20" rx="10" fill="#c7d2fe"/>
    <rect x="300" y="230" width="280" height="16" rx="8" fill="#94a3b8"/>
  </g>
  <g opacity="0.7">
    <rect x="240" y="320" width="720" height="14" rx="7" fill="#94a3b8"/>
    <rect x="240" y="350" width="640" height="14" rx="7" fill="#64748b"/>
    <rect x="240" y="380" width="520" height="14" rx="7" fill="#475569"/>
  </g>
  <g opacity="0.9">
    <rect x="240" y="450" width="140" height="44" rx="12" fill="url(#accent)"/>
    <rect x="400" y="450" width="120" height="44" rx="12" fill="#1e293b" stroke="#334155"/>
    <rect x="540" y="450" width="120" height="44" rx="12" fill="#1e293b" stroke="#334155"/>
  </g>
</svg>
